<?xml version="1.0" encoding="utf-8"?>
<!-- Generator: Adobe Illustrator 26.1.0, SVG Export Plug-In . SVG Version: 6.00 Build 0)  -->
<svg version="1.1" id="Layer_1" xmlns="http://www.w3.org/2000/svg" xmlns:xlink="http://www.w3.org/1999/xlink" x="0px" y="0px"
	 viewBox="0 0 100 95" style="enable-background:new 0 0 100 95;" xml:space="preserve">
<style type="text/css">
	.st0{fill:none;stroke:url(#SVGID_1_);stroke-width:3;stroke-linecap:round;stroke-linejoin:round;stroke-miterlimit:10;}
	
		.st1{fill:none;stroke:url(#SVGID_00000144307237235162023270000008580319741836044976_);stroke-width:3;stroke-linecap:round;stroke-miterlimit:10;}
	
		.st2{fill:none;stroke:url(#SVGID_00000028319432214919926080000012463313090130358156_);stroke-width:3;stroke-linecap:round;stroke-linejoin:round;stroke-miterlimit:10;}
	
		.st3{fill:none;stroke:url(#SVGID_00000107585451904242297830000016549141910020308403_);stroke-width:3;stroke-linecap:round;stroke-linejoin:round;stroke-miterlimit:10;}
	
		.st4{fill:none;stroke:url(#SVGID_00000003790956551754449890000010808962316141003961_);stroke-width:3;stroke-linecap:round;stroke-linejoin:round;stroke-miterlimit:10;}
	
		.st5{fill:none;stroke:url(#SVGID_00000103235492959624435000000008389954616529441928_);stroke-width:3;stroke-linecap:round;stroke-linejoin:round;stroke-miterlimit:10;}
	
		.st6{fill:none;stroke:url(#SVGID_00000035495570955834994040000007746875449218274436_);stroke-width:3;stroke-linecap:round;stroke-linejoin:round;stroke-miterlimit:10;}
	
		.st7{fill:none;stroke:url(#SVGID_00000080909266580519774590000001018160846043144065_);stroke-width:3;stroke-linecap:round;stroke-linejoin:round;stroke-miterlimit:10;}
	.st8{fill:url(#SVGID_00000034808258568787026580000006740986298048688281_);}
	.st9{fill:url(#SVGID_00000170246959829625957240000003668865827628429717_);}
	.st10{fill:url(#SVGID_00000093868414606202727920000004536077205642935444_);}
	.st11{fill:url(#SVGID_00000041264819637772996440000005859568251479034027_);}
	.st12{fill:url(#SVGID_00000170269648435071596160000000826610590406872764_);}
</style>
<g>
	<g>
		<linearGradient id="SVGID_1_" gradientUnits="userSpaceOnUse" x1="27.9693" y1="50.885" x2="38.1455" y2="50.885">
			<stop  offset="0" style="stop-color:#CDE4AE"/>
			<stop  offset="1" style="stop-color:#06B391"/>
		</linearGradient>
		<circle class="st0" cx="33.06" cy="50.89" r="3.59"/>
		
			<linearGradient id="SVGID_00000018222078627788091520000009048375608131941039_" gradientUnits="userSpaceOnUse" x1="43.642" y1="52.584" x2="51.5" y2="52.584">
			<stop  offset="0" style="stop-color:#CDE4AE"/>
			<stop  offset="1" style="stop-color:#06B391"/>
		</linearGradient>
		
			<line style="fill:none;stroke:url(#SVGID_00000018222078627788091520000009048375608131941039_);stroke-width:3;stroke-linecap:round;stroke-miterlimit:10;" x1="50" y1="52.52" x2="45.14" y2="52.64"/>
		
			<linearGradient id="SVGID_00000005974376247717012430000016576793511631716000_" gradientUnits="userSpaceOnUse" x1="53.0133" y1="49.5972" x2="66.1146" y2="49.5972">
			<stop  offset="0" style="stop-color:#CDE4AE"/>
			<stop  offset="1" style="stop-color:#06B391"/>
		</linearGradient>
		
			<path style="fill:none;stroke:url(#SVGID_00000005974376247717012430000016576793511631716000_);stroke-width:3;stroke-linecap:round;stroke-linejoin:round;stroke-miterlimit:10;" d="
			M54.51,52.18c-0.05-2.81,2.36-5.07,5.05-5.17c2.82-0.1,5.1,1.97,5.05,4.92"/>
		
			<linearGradient id="SVGID_00000076592993812720484670000009881718502490448809_" gradientUnits="userSpaceOnUse" x1="66.3218" y1="46.3303" x2="74.0746" y2="46.3303">
			<stop  offset="0" style="stop-color:#CDE4AE"/>
			<stop  offset="1" style="stop-color:#06B391"/>
		</linearGradient>
		
			<path style="fill:none;stroke:url(#SVGID_00000076592993812720484670000009881718502490448809_);stroke-width:3;stroke-linecap:round;stroke-linejoin:round;stroke-miterlimit:10;" d="
			M67.82,35.88c1.16-0.14,4.79,0.53,4.75,4.53c-0.04,3.92,0,16.4,0,16.4"/>
		
			<linearGradient id="SVGID_00000078764409718656886810000004198758843209869189_" gradientUnits="userSpaceOnUse" x1="37.7809" y1="63.9452" x2="74.4793" y2="63.9452">
			<stop  offset="0" style="stop-color:#CDE4AE"/>
			<stop  offset="1" style="stop-color:#06B391"/>
		</linearGradient>
		
			<path style="fill:none;stroke:url(#SVGID_00000078764409718656886810000004198758843209869189_);stroke-width:3;stroke-linecap:round;stroke-linejoin:round;stroke-miterlimit:10;" d="
			M39.29,58.87c0,0-0.24,2.42,1.31,4.69c0.31,0.45,1.9,3.83,10.34,5.17c8.68,1.38,18.2-2.56,20.67-6.18
			c2.36-3.45,0.95-3.68,0.95-3.68l-5.68,0.21c-0.67,0.02-1.34,0.19-1.93,0.52c-0.56,0.32-1.21,0.83-1.66,1.61
			c-0.38,0.65-0.5,1.41-0.48,2.16l0.12,3.82l0.01,0.54"/>
		
			<linearGradient id="SVGID_00000080182790728183624350000009679728088497259178_" gradientUnits="userSpaceOnUse" x1="14.5792" y1="26.0106" x2="85.4208" y2="26.0106">
			<stop  offset="0" style="stop-color:#CDE4AE"/>
			<stop  offset="1" style="stop-color:#06B391"/>
		</linearGradient>
		
			<polyline style="fill:none;stroke:url(#SVGID_00000080182790728183624350000009679728088497259178_);stroke-width:3;stroke-linecap:round;stroke-linejoin:round;stroke-miterlimit:10;" points="
			16.08,38.25 50.42,13.77 83.92,37.38 		"/>
		
			<linearGradient id="SVGID_00000119822389039360217110000010554767364633049018_" gradientUnits="userSpaceOnUse" x1="27.9693" y1="44.1013" x2="46.4716" y2="44.1013">
			<stop  offset="0" style="stop-color:#CDE4AE"/>
			<stop  offset="1" style="stop-color:#06B391"/>
		</linearGradient>
		
			<path style="fill:none;stroke:url(#SVGID_00000119822389039360217110000010554767364633049018_);stroke-width:3;stroke-linecap:round;stroke-linejoin:round;stroke-miterlimit:10;" d="
			M29.47,30.81l13.37,7.58c0.9,0.51,1.6,1.35,1.87,2.38c0.14,0.53,0.24,1.19,0.24,1.99l0.01,10.56l0,4.06"/>
		
			<linearGradient id="SVGID_00000154418381548757543080000010117107428487140281_" gradientUnits="userSpaceOnUse" x1="14.5792" y1="26.0032" x2="85.4208" y2="26.0032">
			<stop  offset="0" style="stop-color:#CDE4AE"/>
			<stop  offset="1" style="stop-color:#06B391"/>
		</linearGradient>
		
			<polyline style="fill:none;stroke:url(#SVGID_00000154418381548757543080000010117107428487140281_);stroke-width:3;stroke-linecap:round;stroke-linejoin:round;stroke-miterlimit:10;" points="
			16.08,38.24 50.42,13.77 83.92,37.38 		"/>
	</g>
	<g>
		
			<linearGradient id="SVGID_00000118371415624958026890000004273581009709459595_" gradientUnits="userSpaceOnUse" x1="31.3334" y1="76.5982" x2="39.8036" y2="76.5982">
			<stop  offset="0" style="stop-color:#CDE4AE"/>
			<stop  offset="1" style="stop-color:#0FB592"/>
		</linearGradient>
		<path style="fill:url(#SVGID_00000118371415624958026890000004273581009709459595_);" d="M34.16,73.06
			c0.11-0.31,0.3-0.54,0.57-0.69c0.27-0.15,0.55-0.23,0.85-0.23c0.28,0,0.55,0.08,0.81,0.23c0.26,0.15,0.44,0.38,0.54,0.68
			l2.87,7.99h-2.42l-0.43-1.36h-2.83l-0.42,1.36h-2.38L34.16,73.06z M34.7,77.82h1.68l-0.84-2.74L34.7,77.82z"/>
		
			<linearGradient id="SVGID_00000125587637974625786870000012947212518615093178_" gradientUnits="userSpaceOnUse" x1="40.3529" y1="77.6104" x2="46.6004" y2="77.6104">
			<stop  offset="0" style="stop-color:#CDE4AE"/>
			<stop  offset="0.1736" style="stop-color:#A3DAA8"/>
			<stop  offset="0.4618" style="stop-color:#64CA9F"/>
			<stop  offset="0.7056" style="stop-color:#36BF98"/>
			<stop  offset="0.8924" style="stop-color:#1AB894"/>
			<stop  offset="1" style="stop-color:#0FB592"/>
		</linearGradient>
		<path style="fill:url(#SVGID_00000125587637974625786870000012947212518615093178_);" d="M40.35,81.05v-5.78
			c0-0.18,0.03-0.34,0.09-0.48c0.06-0.14,0.14-0.25,0.25-0.34c0.1-0.09,0.22-0.16,0.35-0.21c0.13-0.05,0.27-0.07,0.42-0.07
			c0.21,0,0.41,0.05,0.6,0.15c0.19,0.1,0.33,0.25,0.42,0.45c0.21-0.2,0.46-0.35,0.74-0.45c0.28-0.1,0.57-0.15,0.86-0.15
			c0.35,0,0.68,0.05,0.98,0.14c0.3,0.1,0.57,0.26,0.79,0.49c0.22,0.23,0.4,0.54,0.53,0.93s0.2,0.87,0.2,1.45v3.86h-2.27v-3.99
			c0-0.18-0.03-0.34-0.08-0.47c-0.06-0.13-0.12-0.23-0.21-0.31c-0.08-0.08-0.18-0.14-0.28-0.17c-0.1-0.03-0.2-0.05-0.3-0.05
			c-0.1,0-0.19,0.02-0.3,0.05c-0.1,0.03-0.2,0.09-0.29,0.17s-0.16,0.19-0.21,0.31c-0.06,0.13-0.08,0.28-0.08,0.47v3.99H40.35z"/>
		
			<linearGradient id="SVGID_00000142163897496543331500000013696602945867218864_" gradientUnits="userSpaceOnUse" x1="47.4898" y1="76.6969" x2="53.8348" y2="76.6969">
			<stop  offset="0" style="stop-color:#CDE4AE"/>
			<stop  offset="1" style="stop-color:#0FB592"/>
		</linearGradient>
		<path style="fill:url(#SVGID_00000142163897496543331500000013696602945867218864_);" d="M49.87,74.77
			c-0.01,0.21,0.11,0.38,0.35,0.53c0.24,0.15,0.58,0.29,1.02,0.44l0.54,0.19c0.32,0.12,0.61,0.26,0.87,0.44
			c0.26,0.18,0.48,0.38,0.67,0.62s0.32,0.51,0.41,0.8s0.12,0.62,0.1,0.97c-0.05,0.78-0.37,1.39-0.95,1.83
			c-0.58,0.43-1.38,0.65-2.38,0.65c-0.49,0-0.96-0.05-1.42-0.16s-0.83-0.28-1.13-0.51c-0.1-0.09-0.19-0.19-0.26-0.3
			c-0.07-0.11-0.13-0.23-0.16-0.36c-0.03-0.12-0.04-0.25-0.02-0.39c0.02-0.14,0.07-0.27,0.15-0.39C47.74,79,47.85,78.9,48,78.84
			c0.15-0.07,0.29-0.1,0.44-0.11c0.19-0.01,0.34,0.02,0.46,0.09s0.22,0.13,0.32,0.19c0.12,0.08,0.29,0.15,0.48,0.2
			s0.48,0.08,0.86,0.08c0.31,0,0.55-0.05,0.71-0.17c0.17-0.11,0.26-0.29,0.26-0.53c0-0.1-0.04-0.2-0.12-0.3
			c-0.08-0.1-0.2-0.18-0.35-0.26c-0.15-0.08-0.32-0.16-0.52-0.24c-0.2-0.08-0.41-0.15-0.64-0.23c-0.09-0.03-0.18-0.06-0.28-0.1
			c-0.1-0.04-0.18-0.07-0.25-0.1c-0.42-0.18-0.75-0.39-1.01-0.65c-0.26-0.26-0.45-0.54-0.58-0.85c-0.13-0.3-0.19-0.62-0.2-0.94
			c0-0.32,0.04-0.63,0.14-0.91c0.19-0.59,0.54-1.05,1.06-1.38c0.52-0.32,1.15-0.48,1.91-0.48c0.29,0,0.54,0.01,0.75,0.04
			c0.22,0.03,0.41,0.06,0.57,0.1s0.31,0.09,0.43,0.14c0.12,0.05,0.23,0.11,0.33,0.16c0.26,0.14,0.46,0.33,0.6,0.58
			c0.14,0.25,0.17,0.51,0.09,0.77c-0.07,0.23-0.2,0.39-0.37,0.48c-0.17,0.1-0.37,0.14-0.58,0.14c-0.08,0-0.17-0.01-0.27-0.04
			c-0.1-0.03-0.18-0.06-0.23-0.1c-0.13-0.09-0.3-0.17-0.51-0.23c-0.21-0.07-0.47-0.1-0.8-0.1c-0.26,0-0.47,0.05-0.62,0.16
			C49.95,74.37,49.87,74.54,49.87,74.77z"/>
		
			<linearGradient id="SVGID_00000103954480337451648090000006757643272162950543_" gradientUnits="userSpaceOnUse" x1="54.6747" y1="76.4005" x2="56.9628" y2="76.4005">
			<stop  offset="0" style="stop-color:#CDE4AE"/>
			<stop  offset="1" style="stop-color:#0FB592"/>
		</linearGradient>
		<path style="fill:url(#SVGID_00000103954480337451648090000006757643272162950543_);" d="M54.67,72.76c0-0.36,0.11-0.62,0.34-0.78
			c0.23-0.16,0.5-0.24,0.8-0.24c0.31,0,0.58,0.08,0.8,0.24c0.23,0.16,0.34,0.42,0.34,0.78c0,0.18-0.03,0.34-0.09,0.47
			c-0.06,0.13-0.14,0.23-0.25,0.31c-0.1,0.08-0.22,0.14-0.36,0.18c-0.14,0.04-0.29,0.05-0.44,0.05c-0.15,0-0.3-0.02-0.44-0.05
			c-0.14-0.04-0.26-0.1-0.36-0.18c-0.1-0.08-0.18-0.19-0.25-0.31C54.71,73.1,54.67,72.95,54.67,72.76z M54.69,75.35
			c0-0.38,0.11-0.66,0.33-0.84s0.49-0.26,0.8-0.26c0.31,0,0.57,0.09,0.8,0.26s0.34,0.45,0.34,0.84v5.7h-2.27V75.35z"/>
		
			<linearGradient id="SVGID_00000150790609661804179530000017289231675167335614_" gradientUnits="userSpaceOnUse" x1="58.1073" y1="77.6104" x2="68.1503" y2="77.6104">
			<stop  offset="0" style="stop-color:#CDE4AE"/>
			<stop  offset="0.075" style="stop-color:#A9DBA9"/>
			<stop  offset="0.1748" style="stop-color:#80D1A3"/>
			<stop  offset="0.281" style="stop-color:#5DC89E"/>
			<stop  offset="0.3925" style="stop-color:#41C199"/>
			<stop  offset="0.5115" style="stop-color:#2BBC96"/>
			<stop  offset="0.6413" style="stop-color:#1BB894"/>
			<stop  offset="0.79" style="stop-color:#12B692"/>
			<stop  offset="1" style="stop-color:#0FB592"/>
		</linearGradient>
		<path style="fill:url(#SVGID_00000150790609661804179530000017289231675167335614_);" d="M58.11,81.05v-5.78
			c0-0.18,0.03-0.34,0.09-0.48s0.14-0.25,0.25-0.34s0.22-0.16,0.35-0.21s0.27-0.07,0.42-0.07c0.21,0,0.41,0.05,0.6,0.15
			c0.19,0.1,0.32,0.25,0.41,0.45c0.43-0.4,0.94-0.6,1.54-0.6c0.34,0,0.66,0.06,0.97,0.18c0.31,0.12,0.58,0.32,0.81,0.59
			c0.23-0.23,0.5-0.42,0.83-0.56c0.32-0.14,0.71-0.21,1.15-0.21c0.35,0,0.69,0.05,1,0.15c0.32,0.1,0.59,0.26,0.83,0.5
			c0.24,0.23,0.43,0.54,0.57,0.93c0.14,0.39,0.21,0.87,0.21,1.44v3.86h-2.27v-3.99c0-0.18-0.03-0.34-0.08-0.47
			c-0.05-0.13-0.12-0.23-0.2-0.31c-0.08-0.08-0.18-0.14-0.28-0.17c-0.1-0.03-0.19-0.05-0.28-0.05s-0.18,0.02-0.29,0.05
			c-0.1,0.03-0.19,0.09-0.28,0.17c-0.08,0.08-0.15,0.19-0.2,0.31c-0.05,0.13-0.08,0.28-0.08,0.47v3.99h-2.18v-3.99
			c0-0.18-0.03-0.34-0.08-0.47c-0.05-0.13-0.12-0.23-0.2-0.31s-0.18-0.14-0.28-0.17c-0.1-0.03-0.19-0.05-0.28-0.05
			s-0.18,0.02-0.28,0.05c-0.1,0.03-0.19,0.09-0.27,0.16c-0.08,0.07-0.15,0.17-0.2,0.29c-0.06,0.12-0.09,0.27-0.09,0.45v4.05H58.11z"
			/>
	</g>
</g>
</svg>
