<?xml version="1.0" encoding="utf-8"?>
<!-- Generator: Adobe Illustrator 16.0.0, SVG Export Plug-In . SVG Version: 6.00 Build 0)  -->
<!DOCTYPE svg PUBLIC "-//W3C//DTD SVG 1.1//EN" "http://www.w3.org/Graphics/SVG/1.1/DTD/svg11.dtd">
<svg version="1.1" id="레이어_1" xmlns="http://www.w3.org/2000/svg" xmlns:xlink="http://www.w3.org/1999/xlink" x="0px"
	 y="0px" width="286.787px" height="174.191px" viewBox="0 0 286.787 174.191" enable-background="new 0 0 286.787 174.191"
	 xml:space="preserve">
<g>
	<path fill="#0C5B31" d="M159.047,0.049c-2.955,0.303-5.712,2.047-8.193,5.182l-0.122,0.142c-0.029,0.033-3.579,4.005-3.204,8.561
		c0.213,2.579,1.688,4.971,4.387,7.108l72.09,56.265c2.128-3.488,5.297-4.967,6.089-5.293c3.913-1.955,7.677-2.273,11.188-0.943
		c6.004,2.273,9.057,8.695,9.646,10.058l24.634,38.486c0.259,0.403,0.396,0.872,0.395,1.352l-0.063,38.26
		c-0.002,1.379-1.121,2.496-2.5,2.496c0,0-0.003,0-0.004,0c-1.381-0.003-2.498-1.124-2.496-2.504l0.062-37.526L246.6,83.642
		c-0.086-0.135-0.159-0.277-0.219-0.426c-0.021-0.052-2.375-5.782-6.892-7.479c-2.197-0.824-4.564-0.568-7.237,0.787
		c-0.092,0.046-0.185,0.086-0.281,0.121c-0.096,0.037-2.869,1.131-4.217,4.261c-1.228,2.851-0.93,6.551,0.886,10.997l15.217,29.031
		c0.188,0.356,0.285,0.753,0.286,1.155l0.084,37.125c0.003,1.381-1.113,2.503-2.494,2.506c-0.002,0-0.004,0-0.006,0
		c-1.378,0-2.497-1.116-2.5-2.494l-0.082-36.513l-3.738-7.131l-0.012,58.597l51.393,0.012V93.367L167.532,2.755
		C167.503,2.73,163.669-0.426,159.047,0.049z"/>
	<path fill="#0C5B31" d="M35.86,81.127c0.59-1.362,3.643-7.784,9.646-10.058c3.511-1.33,7.275-1.013,11.188,0.943
		c0.793,0.326,3.963,1.805,6.09,5.294l72.104-56.277c2.694-2.134,4.171-4.536,4.375-7.129c0.355-4.523-3.17-8.489-3.205-8.528
		l-0.12-0.142c-2.483-3.135-5.24-4.879-8.195-5.182c-4.64-0.474-8.456,2.683-8.494,2.714l-0.101,0.081L0,93.367v80.824l51.396-0.012
		l-0.012-58.601l-3.74,7.135l-0.081,36.512c-0.003,1.379-1.122,2.495-2.5,2.495c-0.002,0-0.004,0-0.006,0
		c-1.38-0.003-2.497-1.125-2.494-2.506l0.082-37.125c0.001-0.402,0.099-0.799,0.286-1.155l15.217-29.031
		c1.815-4.446,2.113-8.146,0.886-10.997c-1.348-3.13-4.121-4.224-4.239-4.269c-0.08-0.031-0.182-0.075-0.259-0.113
		c-2.673-1.356-5.04-1.612-7.237-0.787c-4.517,1.696-6.871,7.427-6.895,7.484c-0.058,0.145-0.132,0.289-0.216,0.42L15.833,121.69
		l0.062,37.526c0.002,1.38-1.115,2.501-2.496,2.504c0,0-0.003,0-0.004,0c-1.379,0-2.498-1.117-2.5-2.496l-0.063-38.26
		c-0.001-0.479,0.136-0.948,0.395-1.352L35.86,81.127z"/>
	<path fill="#0C5B31" d="M144.936,125.429h-3.307c-14.253,0-25.848,11.595-25.848,25.847v22.019h55v-22.019
		C170.781,137.023,159.188,125.429,144.936,125.429z"/>
	<rect x="125.496" y="72.012" fill="#0C5B31" width="15.285" height="11.083"/>
	<rect x="145.781" y="72.012" fill="#0C5B31" width="15.285" height="11.083"/>
	<path fill="#0C5B31" d="M224.157,94.121c-0.036-0.067-0.068-0.137-0.098-0.207c-1.783-4.326-2.396-8.231-1.847-11.665
		l-73.39-57.278c-2.641-2.092-4.441-4.439-5.429-7.004c-0.987,2.563-2.784,4.909-5.416,6.993L64.575,82.251
		c0.549,3.433-0.063,7.338-1.848,11.663c-0.029,0.07-0.062,0.14-0.098,0.207l-6.249,11.923l0.016,68.14l54.385-0.001v-22.907
		c0-17.009,13.838-30.847,30.848-30.847h3.307c17.009,0,30.846,13.838,30.846,30.847v22.905l54.612-0.001l0.015-68.132
		L224.157,94.121z M166.066,101.679c0,1.381-1.119,2.5-2.5,2.5h-40.57c-1.381,0-2.5-1.119-2.5-2.5V69.512c0-1.381,1.119-2.5,2.5-2.5
		h40.57c1.381,0,2.5,1.119,2.5,2.5V101.679z"/>
	<rect x="145.781" y="88.095" fill="#0C5B31" width="15.285" height="11.084"/>
	<rect x="125.496" y="88.095" fill="#0C5B31" width="15.285" height="11.084"/>
</g>
</svg>
