<?xml version="1.0" encoding="utf-8"?>
<!-- Generator: Adobe Illustrator 16.0.0, SVG Export Plug-In . SVG Version: 6.00 Build 0)  -->
<!DOCTYPE svg PUBLIC "-//W3C//DTD SVG 1.1//EN" "http://www.w3.org/Graphics/SVG/1.1/DTD/svg11.dtd">
<svg version="1.1" id="레이어_1" xmlns="http://www.w3.org/2000/svg" xmlns:xlink="http://www.w3.org/1999/xlink" x="0px"
	 y="0px" width="287.532px" height="242.23px" viewBox="0 0 287.532 242.23" enable-background="new 0 0 287.532 242.23"
	 xml:space="preserve">
<g>
	<path fill="#0C5B31" d="M159.792,8.967c-2.955,0.303-5.712,2.047-8.193,5.182l-0.122,0.142c-0.029,0.033-3.579,4.005-3.204,8.561
		c0.213,2.579,1.688,4.971,4.387,7.108l72.09,56.265c2.128-3.488,5.297-4.967,6.089-5.293c3.913-1.955,7.677-2.273,11.188-0.943
		c6.004,2.273,9.057,8.695,9.646,10.058l24.634,38.486c0.259,0.403,0.396,0.872,0.395,1.352l-0.063,38.26
		c-0.002,1.379-1.121,2.496-2.5,2.496c-0.001,0-0.003,0-0.004,0c-1.381-0.003-2.498-1.124-2.496-2.504l0.062-37.526L247.345,92.56
		c-0.086-0.135-0.159-0.277-0.219-0.426c-0.021-0.052-2.375-5.782-6.892-7.479c-2.197-0.824-4.564-0.568-7.237,0.787
		c-0.092,0.046-0.185,0.086-0.281,0.121c-0.096,0.037-2.869,1.131-4.217,4.261c-1.228,2.851-0.93,6.551,0.886,10.997l15.217,29.031
		c0.188,0.356,0.285,0.753,0.286,1.155l0.084,37.125c0.003,1.381-1.113,2.503-2.494,2.506c-0.002,0-0.004,0-0.006,0
		c-1.378,0-2.497-1.116-2.5-2.494l-0.082-36.513l-3.738-7.131l-0.012,58.597l51.393,0.012v-80.824L168.277,11.673
		C168.248,11.648,164.414,8.492,159.792,8.967z"/>
	<path fill="#0C5B31" d="M36.605,90.045c0.59-1.362,3.643-7.784,9.646-10.058c3.511-1.33,7.275-1.013,11.188,0.943
		c0.793,0.326,3.963,1.805,6.09,5.294l72.104-56.277c2.694-2.134,4.171-4.536,4.375-7.129c0.355-4.523-3.17-8.489-3.205-8.528
		l-0.12-0.142c-2.483-3.135-5.24-4.879-8.195-5.182c-4.64-0.474-8.456,2.683-8.494,2.714l-0.101,0.081L0.745,102.285v80.824
		l51.396-0.012l-0.012-58.601l-3.74,7.135l-0.081,36.512c-0.003,1.379-1.122,2.495-2.5,2.495c-0.002,0-0.004,0-0.006,0
		c-1.38-0.003-2.497-1.125-2.494-2.506l0.082-37.125c0.001-0.402,0.099-0.799,0.286-1.155l15.217-29.031
		c1.815-4.446,2.113-8.146,0.886-10.997c-1.348-3.13-4.121-4.224-4.239-4.269c-0.08-0.031-0.182-0.075-0.259-0.113
		c-2.673-1.356-5.04-1.612-7.237-0.787c-4.517,1.696-6.871,7.427-6.895,7.484c-0.058,0.145-0.132,0.289-0.216,0.42l-24.354,38.049
		l0.062,37.526c0.002,1.38-1.115,2.501-2.496,2.504c-0.001,0-0.003,0-0.004,0c-1.379,0-2.498-1.117-2.5-2.496l-0.063-38.26
		c-0.001-0.479,0.136-0.948,0.395-1.352L36.605,90.045z"/>
	<path fill="#0C5B31" d="M145.681,134.347h-3.307c-14.253,0-25.848,11.595-25.848,25.847v22.019h55v-22.019
		C171.526,145.941,159.933,134.347,145.681,134.347z"/>
	<rect x="126.241" y="80.93" fill="#0C5B31" width="15.285" height="11.083"/>
	<rect x="146.526" y="80.93" fill="#0C5B31" width="15.285" height="11.083"/>
	<path fill="#0C5B31" d="M224.902,103.039c-0.036-0.067-0.068-0.137-0.098-0.207c-1.783-4.326-2.396-8.231-1.847-11.665
		l-73.39-57.278c-2.641-2.092-4.441-4.439-5.429-7.004c-0.987,2.563-2.784,4.909-5.416,6.993L65.32,91.169
		c0.549,3.433-0.063,7.338-1.848,11.663c-0.029,0.07-0.062,0.14-0.098,0.207l-6.249,11.923l0.016,68.14l54.385-0.001v-22.907
		c0-17.009,13.838-30.847,30.848-30.847h3.307c17.009,0,30.846,13.838,30.846,30.847v22.905l54.612-0.001l0.015-68.132
		L224.902,103.039z M166.812,110.597c0,1.381-1.119,2.5-2.5,2.5h-40.57c-1.381,0-2.5-1.119-2.5-2.5V78.43c0-1.381,1.119-2.5,2.5-2.5
		h40.57c1.381,0,2.5,1.119,2.5,2.5V110.597z"/>
	<rect x="146.526" y="97.013" fill="#0C5B31" width="15.285" height="11.084"/>
	<rect x="126.241" y="97.013" fill="#0C5B31" width="15.285" height="11.084"/>
</g>
<g>
	<path fill="#0C5B31" d="M15.988,201.447c0.76,0,1.418,0.176,1.973,0.525c0.556,0.352,1.038,1.039,1.447,2.063l9.869,25.439
		c0.322,0.848,0.322,1.578,0,2.193c-0.322,0.613-0.848,1.037-1.578,1.271c-0.732,0.234-1.455,0.264-2.172,0.088
		s-1.235-0.73-1.557-1.668l-2.544-7.018H10.373l-2.588,7.193c-0.322,0.85-0.811,1.354-1.469,1.514s-1.338,0.125-2.039-0.109
		c-0.702-0.234-1.215-0.629-1.535-1.184c-0.322-0.557-0.322-1.244,0-2.063l9.868-25.658c0.38-1.023,0.855-1.711,1.426-2.063
		C14.605,201.623,15.256,201.447,15.988,201.447z M15.9,208.465c-0.234,0.877-0.461,1.66-0.68,2.346
		c-0.22,0.688-0.505,1.529-0.855,2.523l-2.325,6.359h7.72l-2.281-6.359c-0.38-1.023-0.68-1.9-0.898-2.633
		C16.36,209.971,16.134,209.225,15.9,208.465z"/>
	<path fill="#0C5B31" d="M85.156,201.447c0.673,0,1.272,0.182,1.799,0.547c0.526,0.367,0.789,0.943,0.789,1.732v25.615
		c0,1.375-0.27,2.326-0.811,2.852c-0.542,0.527-1.514,0.789-2.917,0.789c-0.526,0-0.995-0.043-1.403-0.131
		c-0.41-0.088-0.805-0.285-1.185-0.592s-0.775-0.752-1.185-1.338c-0.41-0.584-0.893-1.375-1.447-2.369l-8.289-14.824
		c-0.439-0.791-0.834-1.58-1.186-2.369c-0.35-0.789-0.657-1.682-0.92-2.676v22.193c0,0.791-0.264,1.367-0.79,1.732
		c-0.526,0.367-1.126,0.549-1.798,0.549c-0.674,0-1.272-0.182-1.799-0.549c-0.526-0.365-0.789-0.941-0.789-1.732v-25.615
		c0-1.373,0.27-2.324,0.811-2.85c0.541-0.527,1.514-0.789,2.917-0.789c0.526,0,0.994,0.043,1.403,0.131
		c0.41,0.088,0.805,0.285,1.185,0.592s0.774,0.754,1.185,1.338c0.409,0.586,0.892,1.375,1.447,2.369l8.29,14.824
		c0.438,0.789,0.833,1.58,1.185,2.369c0.351,0.789,0.657,1.682,0.92,2.676v-22.195c0-0.789,0.264-1.365,0.79-1.732
		C83.885,201.629,84.484,201.447,85.156,201.447z"/>
	<path fill="#0C5B31" d="M133.887,201.227c3.157,0,5.804,0.543,7.938,1.623c0.643,0.322,1.053,0.805,1.228,1.447
		c0.176,0.645,0.088,1.287-0.263,1.932c-0.351,0.672-0.805,1.088-1.36,1.25c-0.555,0.16-1.14,0.109-1.754-0.154
		c-0.936-0.41-1.828-0.693-2.676-0.855c-0.848-0.16-1.857-0.24-3.026-0.24c-0.965,0-1.806,0.109-2.522,0.328
		s-1.322,0.512-1.819,0.877s-0.87,0.775-1.118,1.229c-0.25,0.453-0.373,0.914-0.373,1.381v0.264c0,0.557,0.094,1.039,0.285,1.447
		c0.189,0.41,0.525,0.783,1.008,1.119s1.148,0.643,1.996,0.92c0.848,0.279,1.944,0.549,3.29,0.813
		c3.655,0.76,6.272,1.885,7.851,3.377c1.58,1.492,2.369,3.406,2.369,5.746v0.395c0,3.012-0.98,5.307-2.939,6.887
		c-1.959,1.578-4.854,2.367-8.684,2.367c-1.814,0-3.575-0.227-5.285-0.68c-1.711-0.453-3.152-1.045-4.32-1.775
		c-0.703-0.439-1.098-1.002-1.186-1.689c-0.087-0.686,0.073-1.338,0.482-1.951c0.41-0.643,0.906-1.037,1.492-1.184
		c0.584-0.146,1.213-0.029,1.886,0.35c1.023,0.586,2.149,1.047,3.378,1.383c1.228,0.336,2.5,0.504,3.815,0.504
		c2.018,0,3.479-0.357,4.386-1.074s1.36-1.615,1.36-2.697v-0.309c0-1.227-0.476-2.186-1.426-2.873
		c-0.95-0.686-2.478-1.234-4.583-1.645c-1.843-0.35-3.437-0.76-4.781-1.227c-1.346-0.469-2.464-1.061-3.355-1.777
		c-0.893-0.717-1.551-1.578-1.974-2.588c-0.425-1.008-0.636-2.244-0.636-3.707v-0.307c0-1.229,0.24-2.383,0.723-3.465
		s1.207-2.023,2.172-2.828s2.148-1.441,3.553-1.908C130.421,201.461,132.044,201.227,133.887,201.227z"/>
	<path fill="#0C5B31" d="M182.133,201.447c0.761,0,1.418,0.189,1.975,0.57c0.555,0.379,0.833,0.994,0.833,1.842v26.887
		c0,0.848-0.278,1.463-0.833,1.842c-0.557,0.381-1.214,0.57-1.975,0.57c-0.76,0-1.418-0.189-1.973-0.57
		c-0.557-0.379-0.834-0.994-0.834-1.842v-26.887c0-0.848,0.277-1.463,0.834-1.842C180.715,201.637,181.373,201.447,182.133,201.447z
		"/>
	<path fill="#0C5B31" d="M225.205,201.623c0.643,0,1.199,0.051,1.666,0.152c0.469,0.104,0.885,0.307,1.25,0.615
		c0.366,0.307,0.717,0.752,1.053,1.336c0.336,0.586,0.709,1.375,1.119,2.369l6.009,15l5.746-14.955
		c0.351-0.965,0.694-1.74,1.03-2.326c0.336-0.584,0.702-1.037,1.098-1.359c0.395-0.32,0.832-0.541,1.314-0.658
		c0.483-0.115,1.046-0.174,1.689-0.174h0.921c1.403,0,2.376,0.262,2.917,0.789c0.541,0.525,0.812,1.477,0.812,2.85v25.615
		c0,0.791-0.263,1.367-0.79,1.732c-0.525,0.367-1.155,0.549-1.886,0.549c-0.673,0-1.279-0.182-1.82-0.549
		c-0.542-0.365-0.812-0.941-0.812-1.732v-24.342c-0.264,1.111-0.512,2.025-0.746,2.74c-0.234,0.717-0.467,1.383-0.701,1.996
		l-5.789,14.256c-0.381,0.936-0.783,1.557-1.207,1.863s-1.016,0.461-1.776,0.461c-0.907,0-1.587-0.168-2.04-0.504
		s-0.869-0.988-1.25-1.953l-5.658-14.123c-0.234-0.584-0.467-1.242-0.701-1.973c-0.234-0.732-0.512-1.652-0.834-2.764v24.342
		c0,0.791-0.27,1.367-0.811,1.732c-0.541,0.367-1.162,0.549-1.864,0.549c-0.673,0-1.272-0.182-1.798-0.549
		c-0.527-0.365-0.79-0.941-0.79-1.732v-25.615c0-1.373,0.271-2.324,0.812-2.85c0.541-0.527,1.514-0.789,2.916-0.789H225.205z"/>
</g>
<g>
	<path fill="#08582F" d="M274.504,218.997c0-0.288,0.096-0.498,0.289-0.63c0.191-0.132,0.426-0.198,0.701-0.198
		s0.514,0.066,0.711,0.198s0.297,0.342,0.297,0.63v1.692h4.807c0.336,0,0.582,0.117,0.738,0.351
		c0.156,0.234,0.232,0.501,0.232,0.801c0,0.301-0.076,0.567-0.232,0.802c-0.156,0.233-0.402,0.351-0.738,0.351h-10.332
		c-0.336,0-0.582-0.117-0.738-0.351c-0.156-0.234-0.234-0.501-0.234-0.802c0-0.3,0.078-0.566,0.234-0.801
		c0.156-0.233,0.402-0.351,0.738-0.351h3.527V218.997z M275.098,233.523c-0.611,0-1.182-0.09-1.709-0.271
		c-0.529-0.18-0.982-0.449-1.359-0.81c-0.379-0.36-0.676-0.811-0.891-1.35c-0.217-0.54-0.324-1.164-0.324-1.872
		s0.107-1.332,0.324-1.872c0.215-0.54,0.512-0.99,0.891-1.351c0.377-0.359,0.83-0.63,1.359-0.81c0.527-0.18,1.098-0.271,1.709-0.271
		c0.613,0,1.182,0.091,1.711,0.271c0.527,0.18,0.98,0.45,1.359,0.81c0.377,0.36,0.674,0.811,0.891,1.351
		c0.215,0.54,0.324,1.164,0.324,1.872s-0.109,1.332-0.324,1.872c-0.217,0.539-0.514,0.989-0.891,1.35
		c-0.379,0.36-0.832,0.63-1.359,0.81C276.279,233.434,275.711,233.523,275.098,233.523z M275.098,227.115
		c-0.324,0-0.629,0.039-0.918,0.117c-0.287,0.078-0.537,0.201-0.746,0.369c-0.211,0.168-0.379,0.384-0.504,0.647
		c-0.127,0.265-0.189,0.588-0.189,0.973c0,0.384,0.063,0.708,0.189,0.972c0.125,0.264,0.293,0.48,0.504,0.647
		c0.209,0.169,0.459,0.292,0.746,0.369c0.289,0.078,0.594,0.117,0.918,0.117s0.631-0.039,0.918-0.117
		c0.289-0.077,0.537-0.2,0.748-0.369c0.209-0.167,0.377-0.384,0.504-0.647c0.125-0.264,0.189-0.588,0.189-0.972
		c0-0.385-0.064-0.708-0.189-0.973c-0.127-0.264-0.295-0.479-0.504-0.647c-0.211-0.168-0.459-0.291-0.748-0.369
		C275.729,227.154,275.422,227.115,275.098,227.115z M286.564,229.815c0,0.576-0.107,0.975-0.324,1.197
		c-0.217,0.222-0.605,0.333-1.17,0.333h-3.402c-0.336,0-0.582-0.117-0.738-0.352c-0.156-0.233-0.234-0.507-0.234-0.818
		c0-0.301,0.078-0.567,0.234-0.802c0.156-0.233,0.402-0.351,0.738-0.351h2.52c0.277,0,0.414-0.138,0.414-0.414v-7.506
		c0-0.276,0.096-0.48,0.289-0.612c0.191-0.132,0.426-0.198,0.701-0.198c0.264,0,0.492,0.066,0.684,0.198
		c0.193,0.132,0.289,0.336,0.289,0.612V229.815z"/>
	<path fill="#08582F" d="M278.518,201.735c0.336,0,0.582,0.117,0.738,0.352c0.156,0.233,0.234,0.501,0.234,0.801
		s-0.078,0.567-0.234,0.801c-0.156,0.234-0.402,0.352-0.738,0.352h-7.541c-0.336,0-0.582-0.117-0.738-0.352
		c-0.156-0.233-0.234-0.501-0.234-0.801s0.078-0.567,0.234-0.801c0.156-0.234,0.402-0.352,0.738-0.352H278.518z M275.422,212.464
		c-0.324-0.384-0.688-0.66-1.088-0.828c-0.402-0.168-0.855-0.252-1.359-0.252h-1.422c-0.348,0-0.6-0.117-0.756-0.352
		c-0.156-0.233-0.234-0.507-0.234-0.818c0-0.313,0.078-0.585,0.234-0.819s0.408-0.351,0.756-0.351h1.35
		c0.504,0,0.957-0.084,1.359-0.252s0.764-0.444,1.088-0.828c0.324-0.396,0.615-0.769,0.873-1.116s0.49-0.66,0.693-0.937
		c0.18-0.252,0.398-0.384,0.656-0.396c0.26-0.012,0.502,0.066,0.73,0.234c0.096,0.071,0.182,0.159,0.26,0.261
		s0.135,0.213,0.172,0.333c0.035,0.12,0.049,0.249,0.035,0.387c-0.012,0.139-0.064,0.279-0.162,0.423
		c-0.154,0.229-0.35,0.495-0.584,0.802c-0.234,0.306-0.496,0.639-0.783,0.998c-0.348,0.433-0.621,0.732-0.818,0.9
		c-0.199,0.168-0.381,0.276-0.549,0.324v0.018c0.203,0.049,0.416,0.165,0.639,0.352c0.221,0.186,0.506,0.495,0.854,0.927
		c0.553,0.696,1.074,1.393,1.566,2.088c0.193,0.265,0.238,0.528,0.135,0.792c-0.102,0.265-0.254,0.462-0.459,0.594
		c-0.215,0.156-0.461,0.234-0.736,0.234c-0.277,0-0.512-0.138-0.703-0.414c-0.287-0.408-0.57-0.795-0.846-1.161
		S275.746,212.859,275.422,212.464z M286.689,211.042c0,0.575-0.107,0.975-0.324,1.196c-0.215,0.223-0.605,0.333-1.17,0.333h-3.545
		c-0.564,0-0.955-0.11-1.17-0.333c-0.217-0.222-0.324-0.621-0.324-1.196v-7.776c0-0.576,0.107-0.975,0.324-1.197
		c0.215-0.222,0.605-0.333,1.17-0.333h3.545c0.564,0,0.955,0.111,1.17,0.333c0.217,0.223,0.324,0.621,0.324,1.197V211.042z
		 M284.781,204.436c0-0.275-0.137-0.414-0.414-0.414h-1.889c-0.275,0-0.414,0.139-0.414,0.414v5.437
		c0,0.275,0.139,0.413,0.414,0.413h1.889c0.277,0,0.414-0.138,0.414-0.413V204.436z"/>
</g>
</svg>
