<?xml version="1.0" encoding="iso-8859-1"?>
<!-- Generator: Adobe Illustrator 19.0.0, SVG Export Plug-In . SVG Version: 6.00 Build 0)  -->
<svg version="1.1" id="Layer_1" xmlns="http://www.w3.org/2000/svg" xmlns:xlink="http://www.w3.org/1999/xlink" x="0px" y="0px"
	 viewBox="0 0 512 512" style="enable-background:new 0 0 512 512;" xml:space="preserve">
<g>
	<g>
		<g>
			<path d="M448,213.333c-8.384,0-16.341,1.728-23.68,4.672L319.232,56.491C315.477,24.768,288.725,0,256,0H64
				C28.715,0,0,28.715,0,64s28.715,64,64,64h192c18.091,0,34.368-7.616,46.016-19.712l90.112,138.475
				c-5.013,9.131-8.128,19.456-8.128,30.571c0,9.856,2.411,19.072,6.421,27.413L225.835,469.333H106.667
				c-11.776,0-21.333,9.557-21.333,21.333S94.891,512,106.667,512h256c11.776,0,21.333-9.557,21.333-21.333
				s-9.557-21.333-21.333-21.333h-76.501l134.421-134.421c8.341,4.011,17.557,6.421,27.413,6.421c35.285,0,64-28.715,64-64
				S483.285,213.333,448,213.333z"/>
			<path d="M170.667,213.333v-42.667c0-11.776-9.557-21.333-21.333-21.333S128,158.891,128,170.667v42.667
				c0,11.776,9.557,21.333,21.333,21.333S170.667,225.109,170.667,213.333z"/>
			<path d="M73.542,151.584c-10.581-5.291-23.36-0.981-28.629,9.536L23.58,203.787c-5.269,10.539-1.003,23.36,9.536,28.629
				c3.072,1.536,6.336,2.261,9.536,2.261c7.829,0,15.36-4.331,19.093-11.797l21.333-42.667
				C88.348,169.675,84.081,156.853,73.542,151.584z"/>
			<path d="M256.021,234.667c3.2,0,6.464-0.725,9.515-2.24c10.539-5.291,14.827-18.091,9.557-28.629l-21.333-42.667
				c-5.291-10.539-18.069-14.848-28.629-9.557c-10.539,5.291-14.827,18.091-9.557,28.629l21.333,42.667
				C240.661,230.357,248.192,234.667,256.021,234.667z"/>
		</g>
	</g>
</g>
<g>
</g>
<g>
</g>
<g>
</g>
<g>
</g>
<g>
</g>
<g>
</g>
<g>
</g>
<g>
</g>
<g>
</g>
<g>
</g>
<g>
</g>
<g>
</g>
<g>
</g>
<g>
</g>
<g>
</g>
</svg>
