<?xml version="1.0" encoding="iso-8859-1"?>
<!-- Generator: Adobe Illustrator 19.0.0, SVG Export Plug-In . SVG Version: 6.00 Build 0)  -->
<svg version="1.1" id="Layer_1" xmlns="http://www.w3.org/2000/svg" xmlns:xlink="http://www.w3.org/1999/xlink" x="0px" y="0px"
	 viewBox="0 0 511.999 511.999" style="enable-background:new 0 0 511.999 511.999;" xml:space="preserve">
<g>
	<g>
		<path d="M239.245,380.327h-0.245c-5.771,0-10.449,4.678-10.449,10.449c0,5.77,4.678,10.449,10.449,10.449h0.245
			c5.771,0,10.449-4.679,10.449-10.449C249.694,385.005,245.016,380.327,239.245,380.327z"/>
	</g>
</g>
<g>
	<g>
		<path d="M205.196,380.327H103.704c-5.771,0-10.449,4.678-10.449,10.449c0,5.77,4.678,10.449,10.449,10.449h101.492
			c5.771,0,10.449-4.679,10.449-10.449C215.645,385.005,210.967,380.327,205.196,380.327z"/>
	</g>
</g>
<g>
	<g>
		<path d="M491.102,283.422h-5.843c-4.414-32.54-32.358-57.708-66.089-57.708c-6.214,0-12.391,0.874-18.333,2.57
			c-6.543-30.092-33.387-52.701-65.41-52.701c-15.281,0-30.225,5.288-42.079,14.889c-6.94,5.622-12.666,12.582-16.86,20.366
			c-8.81-6.57-19.597-10.238-30.959-10.238c-3.411,0-6.778,0.33-10.081,0.983c-14.403-26.273-41.888-42.79-72.39-42.79
			c-45.551,0-82.611,37.058-82.611,82.61c0,2.071,0.079,4.149,0.238,6.224c-19.914,3.739-37.064,17.194-45.352,35.793H20.898
			C9.375,283.422,0,292.797,0,304.32v19.756c0,10.055,7.14,18.472,16.615,20.453l39.644,101.621
			c10.064,25.796,40.666,46.003,69.67,46.003H386.07c29.003,0,59.605-20.207,69.669-46.003l39.646-101.621
			c9.475-1.981,16.615-10.398,16.615-20.453V304.32C512,292.796,502.625,283.422,491.102,283.422z M91.943,267.48
			c0.001,0,0.003,0,0.004,0c0.19,0.006,0.38,0.013,0.572,0.015c3.194,0.031,6.209-1.394,8.214-3.867
			c2.006-2.473,2.774-5.726,2.087-8.837c-0.978-4.423-1.473-8.927-1.473-13.386c0-34.028,27.685-61.712,61.713-61.712
			c25.177,0,47.603,15.067,57.136,38.385c2.184,5.342,8.285,7.901,13.625,5.719c3.728-1.524,7.667-2.297,11.709-2.297
			c10.559,0,20.292,5.313,26.034,14.214c2.282,3.537,6.461,5.362,10.606,4.623c4.143-0.735,7.442-3.885,8.368-7.989
			c4.684-20.781,23.565-35.863,44.891-35.863c25.384,0,46.035,20.651,46.035,45.962l-0.004,0.107
			c-0.005,0.176-0.011,0.352-0.014,0.529c-0.049,3.726,1.89,7.196,5.09,9.107c3.199,1.911,7.172,1.975,10.431,0.164
			c6.759-3.754,14.437-5.739,22.202-5.739c22.18,0,40.73,15.845,44.926,36.81H59.515C67.152,273.624,79.075,267.48,91.943,267.48z
			 M436.271,438.553c-6.915,17.726-29.905,32.701-50.2,32.701H125.93c-20.296,0-43.285-14.975-50.201-32.701l-36.508-93.58H472.78
			L436.271,438.553z M491.102,324.076H20.898V304.32h470.204l0.013,19.756C491.115,324.076,491.11,324.076,491.102,324.076z"/>
	</g>
</g>
<g>
	<g>
		<path d="M259.008,90.89c-19.59,0-35.527,15.937-35.527,35.527s15.937,35.527,35.527,35.527c19.59,0,35.527-15.937,35.527-35.527
			S278.598,90.89,259.008,90.89z M259.008,141.045c-8.067,0-14.629-6.562-14.629-14.629s6.562-14.629,14.629-14.629
			c8.067,0,14.629,6.562,14.629,14.629S267.075,141.045,259.008,141.045z"/>
	</g>
</g>
<g>
	<g>
		<path d="M420.006,101.383c-19.59,0-35.527,15.937-35.527,35.527s15.937,35.527,35.527,35.527
			c19.589,0,35.526-15.937,35.526-35.527S439.595,101.383,420.006,101.383z M420.006,151.538c-8.067,0-14.629-6.562-14.629-14.629
			c0-8.067,6.562-14.629,14.629-14.629c8.067,0,14.629,6.562,14.629,14.629C434.635,144.976,428.073,151.538,420.006,151.538z"/>
	</g>
</g>
<g>
	<g>
		<path d="M343.784,19.847c-22.471,0-40.751,18.281-40.751,40.751c0,22.469,18.28,40.751,40.751,40.751
			c22.471,0,40.751-18.281,40.751-40.751S366.255,19.847,343.784,19.847z M343.784,80.451c-10.947,0-19.853-8.906-19.853-19.853
			s8.906-19.853,19.853-19.853s19.853,8.906,19.853,19.853S354.731,80.451,343.784,80.451z"/>
	</g>
</g>
<g>
</g>
<g>
</g>
<g>
</g>
<g>
</g>
<g>
</g>
<g>
</g>
<g>
</g>
<g>
</g>
<g>
</g>
<g>
</g>
<g>
</g>
<g>
</g>
<g>
</g>
<g>
</g>
<g>
</g>
</svg>
