<?xml version="1.0" encoding="iso-8859-1"?>
<!-- Generator: Adobe Illustrator 19.0.0, SVG Export Plug-In . SVG Version: 6.00 Build 0)  -->
<svg version="1.1" id="Layer_1" xmlns="http://www.w3.org/2000/svg" xmlns:xlink="http://www.w3.org/1999/xlink" x="0px" y="0px"
	 viewBox="0 0 512 512" style="enable-background:new 0 0 512 512;" xml:space="preserve">
<g>
	<g>
		<path d="M500.468,104.004l-92.472-92.472C400.258,3.794,389.562-0.4,378.616,0.03c-10.933,0.427-21.282,5.445-28.391,13.764
			l-94.181,110.215c-13.262,15.519-12.343,38.982,2.091,53.417l26.571,26.571L175.499,313.203l-27.218-27.218L0,434.268L77.733,512
			l148.282-148.282L198.796,336.5l109.206-109.206l26.571,26.571c7.609,7.61,17.727,11.463,27.869,11.463
			c9.096,0,18.211-3.101,25.548-9.371l110.216-94.182c8.319-7.109,13.335-17.458,13.764-28.391
			C512.398,122.449,508.206,111.741,500.468,104.004z M289.965,162.663l-8.531-8.531c-2.357-2.357-2.507-6.186-0.342-8.719
			l94.181-110.215c1.588-1.859,3.585-2.206,4.634-2.247c0.077-0.003,0.16-0.004,0.247-0.004c1.097,0,2.946,0.281,4.548,1.882
			l13.639,13.639L289.965,162.663z M326.033,198.732l-12.764-12.764L421.644,71.772l18.584,18.584L326.033,198.732z
			 M479.049,132.094c-0.041,1.048-0.387,3.045-2.246,4.634L366.588,230.91c-2.532,2.164-6.361,2.015-8.717-0.342l-8.531-8.531
			l114.195-108.376l13.639,13.639C478.901,129.028,479.09,131.045,479.049,132.094z"/>
	</g>
</g>
<g>
</g>
<g>
</g>
<g>
</g>
<g>
</g>
<g>
</g>
<g>
</g>
<g>
</g>
<g>
</g>
<g>
</g>
<g>
</g>
<g>
</g>
<g>
</g>
<g>
</g>
<g>
</g>
<g>
</g>
</svg>
